<?xml version="1.0" encoding="UTF-8"?>
<svg xmlns="http://www.w3.org/2000/svg" width="61" height="61" viewBox="0 0 61 61" fill="none">
  <path d="M2.77947e-07 53.7806C4.27515e-07 52.0698 1.38692 50.6829 3.09778 50.6829H5.39373C7.10458 50.6829 8.49151 49.2959 8.49151 47.5851V45.3537C8.49151 43.6428 9.87843 42.2559 11.5893 42.2559H13.8313C15.5422 42.2559 16.9291 40.869 16.9291 39.1581V36.9162C16.9291 35.2054 18.316 33.8185 20.0269 33.8185H22.2688C23.9796 33.8185 25.3665 32.4315 25.3665 30.7207V28.4788C25.3665 26.768 26.7535 25.381 28.4643 25.381H30.7062C32.4171 25.381 33.804 23.9941 33.804 22.2832V20.0412C33.804 18.3303 35.1909 16.9434 36.9018 16.9434H39.1436C40.8545 16.9434 42.2414 15.5565 42.2414 13.8456V11.6038C42.2414 9.89291 43.6283 8.50599 45.3392 8.50599H47.5851C49.2959 8.50599 50.6829 7.11907 50.6829 5.40821V3.09778C50.6829 1.38693 52.0698 3.53807e-06 53.7806 3.68764e-06L56.9602 3.9656e-06C58.671 4.11517e-06 60.0579 1.38693 60.0579 3.09778V6.27712C60.0579 7.98798 58.671 9.3749 56.9602 9.3749L54.7143 9.3749C53.0034 9.3749 51.6165 10.7618 51.6165 12.4727V14.7833C51.6165 16.4942 50.2296 17.8811 48.5187 17.8811H46.2768C44.566 17.8811 43.1791 19.268 43.1791 20.9789V23.2207C43.1791 24.9316 41.7921 26.3185 40.0813 26.3185H37.8392C36.1284 26.3185 34.7414 27.7054 34.7414 29.4163V31.6583C34.7414 33.3692 33.3545 34.7561 31.6437 34.7561H29.4018C27.6909 34.7561 26.304 36.143 26.304 37.8539V40.0958C26.304 41.8066 24.9171 43.1935 23.2062 43.1935H20.9644C19.2535 43.1935 17.8666 44.5805 17.8666 46.2913V48.5332C17.8666 50.244 16.4797 51.631 14.7688 51.631H12.4729C10.762 51.631 9.37508 53.0179 9.37508 54.7287V56.96C9.37508 58.6708 7.98816 60.0578 6.2773 60.0578H3.09778C1.38692 60.0578 -1.49568e-07 58.6708 0 56.96L2.77947e-07 53.7806Z" fill="#111111" fill-opacity="0.4"></path>
  <path fill-rule="evenodd" clip-rule="evenodd" d="M8.50122 20.1494C8.50122 18.4385 7.1143 17.0516 5.40345 17.0516L3.09778 17.0516C1.38693 17.0516 3.61015e-06 15.6646 3.75972e-06 13.9538L4.03768e-06 10.7743C4.18725e-06 9.06341 1.38693 7.67649 3.09778 7.67649H5.40345C7.1143 7.67649 8.50123 6.28957 8.50123 4.57871L8.50123 3.09778C8.50123 1.38692 9.88815 -1.49568e-07 11.599 0L14.7783 2.77947e-07C16.4892 4.27515e-07 17.8761 1.38692 17.8761 3.09778V5.32957C17.8761 7.04042 19.263 8.42735 20.9739 8.42735H23.0378C24.7486 8.42735 26.1356 9.81427 26.1356 11.5251V14.7045C26.1356 16.4153 24.7486 17.8022 23.0378 17.8022H20.9739C19.263 17.8022 17.8761 19.1892 17.8761 20.9V23.1516C17.8761 24.8625 16.4892 26.2494 14.7783 26.2494H11.599C9.88815 26.2494 8.50122 24.8625 8.50122 23.1516V20.1494ZM16.7607 12.4727C16.7607 10.7618 15.3737 9.3749 13.6629 9.3749H12.4729C10.762 9.3749 9.37509 10.7618 9.37509 12.4727V13.7767C9.37509 15.4876 10.762 16.8745 12.4729 16.8745H13.6629C15.3737 16.8745 16.7607 15.4876 16.7607 13.7767V12.4727Z" fill="#111111" fill-opacity="0.4"></path>
  <path fill-rule="evenodd" clip-rule="evenodd" d="M42.2898 54.6888C42.2898 52.9779 40.9029 51.591 39.192 51.591H36.9404C35.2296 51.591 33.8427 50.2041 33.8427 48.4932V45.3137C33.8427 43.6028 35.2296 42.2159 36.9404 42.2159H39.192C40.9029 42.2159 42.2898 40.829 42.2898 39.1181V36.8666C42.2898 35.1557 43.6767 33.7688 45.3876 33.7688H48.5669C50.2778 33.7688 51.6647 35.1557 51.6647 36.8666V39.1181C51.6647 40.829 53.0516 42.2159 54.7625 42.2159H56.96C58.6708 42.2159 60.0578 43.6028 60.0578 45.3137V48.493C60.0578 50.2039 58.6708 51.5908 56.96 51.5908H54.7625C53.0516 51.5908 51.6647 52.9777 51.6647 54.6886V56.96C51.6647 58.6708 50.2778 60.0578 48.5669 60.0578H45.3876C43.6767 60.0578 42.2898 58.6708 42.2898 56.96V54.6888ZM50.6829 46.2415C50.6829 44.5306 49.2959 43.1437 47.5851 43.1437H46.3153C44.6045 43.1437 43.2175 44.5306 43.2175 46.2415V47.5851C43.2175 49.2959 44.6045 50.6829 46.3153 50.6829H47.5851C49.2959 50.6829 50.6829 49.2959 50.6829 47.5851V46.2415Z" fill="#111111" fill-opacity="0.4"></path>
</svg>
