<?xml version="1.0" encoding="UTF-8"?>
<svg xmlns="http://www.w3.org/2000/svg" width="60" height="61" viewBox="0 0 60 61" fill="none">
  <path d="M20.8943 55.2199C20.8943 53.509 19.5074 52.1221 17.7965 52.1221L15.5449 52.1221C13.8341 52.1221 12.4471 50.7351 12.4471 49.0243V46.7727C12.4471 45.0619 11.0602 43.6749 9.34936 43.6749H7.09778C5.38692 43.6749 4 42.288 4 40.5771L4 37.3976C4 35.6868 5.38692 34.2998 7.09778 34.2998H10.2771C11.988 34.2999 13.3749 35.6868 13.3749 37.3976V39.6492C13.3749 41.3601 14.7618 42.747 16.4727 42.747H18.7243C20.4351 42.747 21.822 44.1339 21.822 45.8448V47.9086C21.822 49.6195 23.209 51.0064 24.9198 51.0064H26.2436C27.9545 51.0064 29.3414 49.6195 29.3414 47.9086V37.2556C29.3414 35.5447 30.7284 34.1578 32.4392 34.1578L34.6908 34.1578C36.4016 34.1578 37.7886 32.7709 37.7886 31.06L37.7886 20.5033C37.7886 18.7925 39.1755 17.4056 40.8864 17.4056L43.1379 17.4056C44.8488 17.4056 46.2357 16.0186 46.2357 14.3078V3.67395C46.2357 1.9631 47.6226 0.576172 49.3335 0.576172L52.5128 0.576172C54.2237 0.576172 55.6106 1.9631 55.6106 3.67395L55.6106 15.3006C55.6106 17.0115 54.2237 18.3984 52.5128 18.3984H50.2612C48.5504 18.3984 47.1635 19.7853 47.1635 21.4962L47.1635 32.1201C47.1635 33.831 45.7765 35.2179 44.0657 35.2179H41.8141C40.1032 35.2179 38.7163 36.6048 38.7163 38.3157V48.8725C38.7163 50.5834 37.3294 51.9703 35.6185 51.9703H33.367C31.6561 51.9703 30.2692 53.3572 30.2692 55.0681L30.2692 57.2837C30.2692 58.9946 28.8823 60.3815 27.1714 60.3815H23.9921C22.2812 60.3815 20.8943 58.9946 20.8943 57.2837V55.2199Z" fill="#111111" fill-opacity="0.4"></path>
</svg>
