<?xml version="1.0" encoding="UTF-8"?>
<svg xmlns="http://www.w3.org/2000/svg" width="60" height="60" viewBox="0 0 60 60" fill="none">
  <path fill-rule="evenodd" clip-rule="evenodd" d="M16.8607 25.4178C16.8607 23.7084 15.475 22.3226 13.7656 22.3226H3.09516C1.38575 22.3226 2.06158e-06 20.9369 2.21103e-06 19.2275L2.48874e-06 16.0508C2.63818e-06 14.3414 1.38575 12.9557 3.09516 12.9557H13.7656C15.475 12.9557 16.8607 11.5699 16.8607 9.86051V7.62054C16.8607 5.91114 18.2465 4.52539 19.9559 4.52539L23.1327 4.52539C24.8421 4.52539 26.2279 5.91114 26.2279 7.62054V9.86051C26.2279 11.5699 27.6136 12.9557 29.323 12.9557L39.9933 12.9557C41.7027 12.9557 43.0884 14.3414 43.0884 16.0508V19.2275C43.0884 20.9369 41.7027 22.3226 39.9933 22.3226H29.323C27.6136 22.3226 26.2279 23.7084 26.2279 25.4178V27.6579C26.2279 29.3673 24.8421 30.7531 23.1327 30.7531H19.9559C18.2465 30.7531 16.8607 29.3673 16.8607 27.6579V25.4178ZM25.291 16.9875C25.291 15.2781 23.9053 13.8923 22.1959 13.8923H20.8926C19.1832 13.8923 17.7974 15.2781 17.7974 16.9875V18.291C17.7974 20.0004 19.1832 21.3861 20.8926 21.3861H22.1959C23.9053 21.3861 25.291 20.0004 25.291 18.291V16.9875Z" fill="#111111" fill-opacity="0.4"></path>
  <path d="M50.5822 16.0508C50.5822 14.3414 51.9679 12.9557 53.6773 12.9557L56.854 12.9557C58.5634 12.9557 59.9491 14.3414 59.9491 16.0508V19.2275C59.9491 20.9369 58.5634 22.3226 56.854 22.3226H53.6773C51.9679 22.3226 50.5822 20.9369 50.5822 19.2275V16.0508Z" fill="#111111" fill-opacity="0.4"></path>
  <path fill-rule="evenodd" clip-rule="evenodd" d="M33.7215 50.709C33.7215 48.9995 32.3357 47.6138 30.6263 47.6138H20.4242C18.7148 47.6138 17.3291 46.228 17.3291 44.5186V41.3418C17.3291 39.6324 18.7148 38.2467 20.4242 38.2467H30.6263C32.3357 38.2467 33.7215 36.8609 33.7215 35.1515V32.9115C33.7215 31.2021 35.1072 29.8164 36.8166 29.8164H39.9933C41.7027 29.8164 43.0884 31.2021 43.0884 32.9115V35.1515C43.0884 36.8609 44.4742 38.2467 46.1836 38.2467H56.854C58.5634 38.2467 59.9491 39.6324 59.9491 41.3418V44.5186C59.9491 46.2281 58.5634 47.6138 56.854 47.6138H46.1837C44.4743 47.6138 43.0886 48.9995 43.0886 50.709V52.9489C43.0886 54.6583 41.7028 56.0441 39.9934 56.0441H36.8166C35.1072 56.0441 33.7215 54.6583 33.7215 52.9489V50.709ZM42.1517 42.2785C42.1517 40.5691 40.766 39.1833 39.0566 39.1833H37.7533C36.0439 39.1833 34.6581 40.5691 34.6581 42.2785V43.5818C34.6581 45.2912 36.0439 46.6769 37.7533 46.6769H39.0566C40.766 46.6769 42.1517 45.2912 42.1517 43.5818V42.2785Z" fill="#111111" fill-opacity="0.4"></path>
  <path d="M2.77727e-07 41.3418C4.27168e-07 39.6324 1.38575 38.2467 3.09515 38.2467L6.27198 38.2467C7.98139 38.2467 9.36713 39.6324 9.36713 41.3418V44.5186C9.36713 46.228 7.98139 47.6138 6.27198 47.6138L3.09515 47.6138C1.38575 47.6138 -1.49441e-07 46.228 0 44.5186L2.77727e-07 41.3418Z" fill="#111111" fill-opacity="0.4"></path>
</svg>
