<?xml version="1.0" encoding="UTF-8"?>
<svg xmlns="http://www.w3.org/2000/svg" width="61" height="60" viewBox="0 0 61 60" fill="none">
  <path d="M25.3414 37.8534C25.3414 36.1425 23.9545 34.7556 22.2436 34.7556H19.9921C18.2812 34.7556 16.8943 33.3686 16.8943 31.6578V28.4783C16.8943 26.7674 18.2812 25.3805 19.9921 25.3805H22.2436C23.9545 25.3805 25.3414 23.9936 25.3414 22.2827V20.0311C25.3414 18.3203 26.7284 16.9333 28.4392 16.9333H31.6185C33.3294 16.9333 34.7163 18.3203 34.7163 20.0311V22.2827C34.7163 23.9936 36.1033 25.3805 37.8141 25.3805H40.0657C41.7765 25.3805 43.1635 26.7674 43.1635 28.4783V31.6578C43.1635 33.3686 41.7765 34.7556 40.0657 34.7556H37.8141C36.1032 34.7556 34.7163 36.1425 34.7163 37.8534V39.9172C34.7163 41.6281 33.3294 43.015 31.6185 43.015H28.4392C26.7283 43.015 25.3414 41.6281 25.3414 39.9172V37.8534Z" fill="#111111" fill-opacity="0.4"></path>
  <path fill-rule="evenodd" clip-rule="evenodd" d="M17.0312 54.5599C17.0312 52.8491 15.6443 51.4621 13.9334 51.4621H11.5449C9.83406 51.4621 8.44714 50.0752 8.44714 48.3644V46.1128C8.44714 44.4019 7.06022 43.015 5.34936 43.015L3.09778 43.015C1.38692 43.015 -1.49568e-07 41.6281 0 39.9172L1.7385e-06 20.0311C1.88807e-06 18.3203 1.38693 16.9333 3.09778 16.9333H5.34937C7.06022 16.9333 8.44714 15.5464 8.44714 13.8356V11.584C8.44714 9.87313 9.83407 8.4862 11.5449 8.4862H13.7965C15.5074 8.4862 16.8943 7.09928 16.8943 5.38843V3.13684C16.8943 1.42599 18.2812 0.0390624 19.9921 0.0390625L40.0657 0.0390643C41.7766 0.0390644 43.1635 1.42599 43.1635 3.13684V5.38843C43.1635 7.09928 44.5504 8.48621 46.2612 8.48621H48.5128C50.2237 8.48621 51.6106 9.87313 51.6106 11.584V13.8356C51.6106 15.5464 52.9975 16.9333 54.7084 16.9333H56.96C58.6708 16.9334 60.0578 18.3203 60.0578 20.0311V39.9172C60.0578 41.6281 58.6708 43.015 56.96 43.015H54.7084C52.9975 43.015 51.6106 44.4019 51.6106 46.1128V48.3644C51.6106 50.0752 50.2237 51.4621 48.5128 51.4621H46.2612C44.5504 51.4621 43.1635 52.8491 43.1635 54.5599V56.8115C43.1635 58.5224 41.7765 59.9093 40.0657 59.9093H20.129C18.4181 59.9093 17.0312 58.5224 17.0312 56.8115V54.5599ZM42.2357 45.1848C42.2357 43.474 43.6226 42.0871 45.3335 42.0871H47.5851C49.2959 42.0871 50.6829 40.7001 50.6829 38.9893V20.9591C50.6829 19.2482 49.2959 17.8613 47.5851 17.8613H45.3335C43.6226 17.8613 42.2357 16.4744 42.2357 14.7635V12.5119C42.2357 10.8011 40.8488 9.41415 39.1379 9.41415L20.9198 9.41414C19.209 9.41414 17.822 10.8011 17.822 12.5119V14.7635C17.822 16.4744 16.4351 17.8613 14.7243 17.8613H12.4727C10.7618 17.8613 9.3749 19.2482 9.3749 20.9591L9.3749 38.9893C9.3749 40.7001 10.7618 42.0871 12.4727 42.0871H14.7243C16.4351 42.0871 17.822 43.474 17.822 45.1848V47.4364C17.822 49.1473 19.209 50.5342 20.9198 50.5342H39.1379C40.8488 50.5342 42.2357 49.1473 42.2357 47.4364V45.1848Z" fill="#111111" fill-opacity="0.4"></path>
</svg>
