<?xml version="1.0" encoding="UTF-8"?>
<svg xmlns="http://www.w3.org/2000/svg" width="61" height="61" viewBox="0 0 61 61" fill="none">
  <path fill-rule="evenodd" clip-rule="evenodd" d="M33.7599 3.14406C33.7599 1.43465 35.1457 0.0489059 36.8551 0.048906L42.1659 0.0489065C42.1794 0.0489065 42.1904 0.037959 42.1904 0.0244547C42.1904 0.0109504 42.2013 2.95021e-06 42.2148 2.95139e-06L56.8772 4.23321e-06C58.5866 4.38266e-06 59.9724 1.38575 59.9724 3.09516V22.8745C59.9724 24.5839 58.5866 25.9696 56.8772 25.9696H43.1515C43.138 25.9696 43.1271 25.9806 43.1271 25.9941C43.1271 26.0076 43.1161 26.0185 43.1026 26.0185H36.8551C35.1457 26.0185 33.7599 24.6328 33.7599 22.9234L33.7599 3.14406ZM50.6053 12.4621C50.6053 10.7527 49.2195 9.36695 47.5101 9.36695H46.2222C44.5128 9.36695 43.1271 10.7527 43.1271 12.4621V13.5075C43.1271 15.2169 44.5128 16.6027 46.2222 16.6027H47.5101C49.2195 16.6027 50.6053 15.2169 50.6053 13.5075V12.4621Z" fill="#111111" fill-opacity="0.4"></path>
  <path fill-rule="evenodd" clip-rule="evenodd" d="M1.72916e-06 3.14406C1.8786e-06 1.43465 1.38575 0.0489029 3.09515 0.0489031L8.40601 0.0489035C8.41951 0.0489035 8.43046 0.0379561 8.43046 0.0244518C8.43046 0.0109474 8.44141 -1.18059e-09 8.45491 0L23.1173 1.28183e-06C24.8267 1.43127e-06 26.2125 1.38575 26.2125 3.09515L26.2125 22.8745C26.2125 24.5839 24.8267 25.9696 23.1173 25.9696H9.39158C9.37808 25.9696 9.36713 25.9806 9.36713 25.9941C9.36713 26.0076 9.35618 26.0185 9.34268 26.0185H3.09515C1.38575 26.0185 -1.49441e-07 24.6328 0 22.9234L1.72916e-06 3.14406ZM16.8453 12.4621C16.8453 10.7527 15.4596 9.36695 13.7502 9.36695H12.4623C10.7529 9.36695 9.36713 10.7527 9.36713 12.4621V13.5075C9.36713 15.2169 10.7529 16.6027 12.4623 16.6027H13.7502C15.4596 16.6027 16.8453 15.2169 16.8453 13.5075V12.4621Z" fill="#111111" fill-opacity="0.4"></path>
  <path d="M0.000181941 36.8551C0.000182091 35.1457 1.38593 33.7599 3.09533 33.7599L56.8771 33.7599C58.5865 33.7599 59.9722 35.1457 59.9722 36.8551L59.9722 56.7241C59.9722 58.4335 58.5865 59.8193 56.8771 59.8193H53.7004C51.991 59.8193 50.6053 58.4335 50.6053 56.7241L50.6053 46.222C50.6053 44.5126 49.2195 43.1269 47.5101 43.1269H37.7474C36.038 43.1269 34.6523 44.5126 34.6523 46.222V56.7782C34.6523 58.4876 33.2665 59.8733 31.5571 59.8733H28.3805C26.6711 59.8733 25.2853 58.4876 25.2853 56.7782V46.222C25.2853 44.5126 23.8996 43.1269 22.1902 43.1269H12.4623C10.7529 43.1269 9.36713 44.5126 9.36713 46.222L9.36713 56.9117C9.36713 58.6211 7.98138 60.0068 6.27198 60.0068H3.09533C1.38593 60.0068 0.000180038 58.6211 0.000180188 56.9117L0.000181941 36.8551Z" fill="#111111" fill-opacity="0.4"></path>
</svg>
