<?xml version="1.0" encoding="UTF-8"?>
<svg xmlns="http://www.w3.org/2000/svg" width="60" height="61" viewBox="0 0 60 61" fill="none">
  <path d="M41.7886 3.09778C41.7886 1.38692 43.1755 -1.49568e-07 44.8864 0L48.0657 2.77947e-07C49.7766 4.27515e-07 51.1635 1.38692 51.1635 3.09778L51.1635 56.9602C51.1635 58.671 49.7765 60.0579 48.0657 60.0579H44.8863C43.1755 60.0579 41.7886 58.671 41.7886 56.9602L41.7886 3.09778Z" fill="#111111" fill-opacity="0.4"></path>
  <path d="M24.8943 50.6558C24.8943 50.6409 24.9064 50.6288 24.9213 50.6288C24.9363 50.6288 24.9484 50.6167 24.9484 50.6017L24.9484 21.1183C24.9484 19.4075 26.3353 18.0206 28.0461 18.0206H31.2255C32.9363 18.0206 34.3233 19.4075 34.3233 21.1184L34.3233 51.5838C34.3233 51.5987 34.3112 51.6108 34.2962 51.6108C34.2813 51.6108 34.2692 51.6229 34.2692 51.6378V56.9061C34.2692 58.6169 32.8823 60.0039 31.1714 60.0039H27.9921C26.2812 60.0039 24.8943 58.6169 24.8943 56.9061V50.6558Z" fill="#111111" fill-opacity="0.4"></path>
  <path d="M8 36.8323C8 35.1214 9.38692 33.7345 11.0978 33.7345H14.2771C15.988 33.7345 17.3749 35.1214 17.3749 36.8323L17.3749 57.0142C17.3749 58.7251 15.988 60.112 14.2771 60.112L11.0978 60.112C9.38692 60.112 8 58.7251 8 57.0142L8 36.8323Z" fill="#111111" fill-opacity="0.4"></path>
</svg>
